<svg width="100" height="100" viewBox="0 0 100 100" fill="none" xmlns="http://www.w3.org/2000/svg">
<g clip-path="url(#clip0_3_2)">
<path d="M56.8292 49.7H52.8542C53.1042 48.625 53.7542 47.65 55.0792 47.65C56.1042 47.65 56.8292 48.6 56.8292 49.7ZM100.004 50C100.004 77.6125 77.6167 100 50.0042 100C22.3917 100 0.00416565 77.6125 0.00416565 50C0.00416565 22.3875 22.3917 1.52588e-05 50.0042 1.52588e-05C77.6167 1.52588e-05 100.004 22.3875 100.004 50ZM25.9042 40.75C25.9042 41.9917 26.9125 43 28.1542 43C29.3958 43 30.4042 41.9917 30.4042 40.75C30.4042 39.5083 29.3958 38.5 28.1542 38.5C26.9125 38.5 25.9042 39.5083 25.9042 40.75ZM32.2292 55H30.4792V44.475H20.2042V43.8C20.2042 42.475 21.5292 42.45 22.2042 42.45C22.9792 42.45 23.3292 42.525 23.3292 42.525V38.875C23.3292 38.875 22.6292 38.775 21.6792 38.775C19.5292 38.775 15.5542 39.375 15.5542 43.925V44.5H13.6792V47.875H15.5542V55H13.8042V58.375H22.2542V55H20.2042V47.875H25.8292V55H24.0792V58.375H32.2292V55ZM46.4542 47.85H48.0042V44.475H40.6292V47.85H41.8792L40.2792 52.85C39.9792 53.675 39.9042 54.675 39.9042 54.675H39.8042C39.8042 54.675 39.7292 53.675 39.4292 52.85L37.8292 47.85H39.0792V44.475H31.7042V47.85H33.2542L37.1042 58.35H42.6042L46.4542 47.85ZM61.6542 50.85C61.6542 47 59.3292 44.15 55.2042 44.15C50.7292 44.15 47.9792 47.325 47.9792 51.4C47.9792 55.1 50.6542 58.675 55.6042 58.675C59.3542 58.675 61.5792 56.725 61.5792 56.725L59.8792 53.5C59.8792 53.5 58.0292 54.825 55.9792 54.825C54.5042 54.825 53.1042 54.05 52.7542 52.275H61.5542C61.5292 52.25 61.6542 51.3 61.6542 50.85ZM74.0542 44.3C74.0542 44.3 73.7792 44.25 73.5042 44.25C71.3792 44.225 69.6292 45.775 69.0542 47.675H69.0042C69.0042 47.675 69.0542 47.4 69.0542 46.975V46.25C69.0542 44.975 68.3542 44.475 67.0792 44.475H62.7042V47.85H64.0042C64.3792 47.85 64.6042 48.075 64.6042 48.45V55H62.7292V58.375H71.1542V55H69.2792V52.975C69.2792 50.45 70.5292 48.8 73.1042 48.8C73.6792 48.8 74.0542 48.875 74.0542 48.875V44.3ZM86.3792 48.875V44.3C86.3792 44.3 86.1042 44.25 85.8292 44.25C83.7292 44.225 81.9792 45.775 81.3792 47.675H81.3292C81.3292 47.675 81.3792 47.4 81.3792 46.975V46.25C81.3792 44.975 80.6792 44.475 79.4042 44.475H75.0292V47.85H76.3292C76.7042 47.85 76.9292 48.075 76.9292 48.45V55H75.0542V58.375H83.4792V55H81.6042V52.975C81.6042 50.45 82.8542 48.8 85.4292 48.8C86.0042 48.8 86.3792 48.875 86.3792 48.875Z" fill="#4EEA8C"/>
</g>
<defs>
<clipPath id="clip0_3_2">
<rect width="100" height="100" fill="white"/>
</clipPath>
</defs>
</svg>
